<?xml version="1.0" encoding="utf-8"?>
<!-- Generator: Adobe Illustrator 19.2.1, SVG Export Plug-In . SVG Version: 6.00 Build 0)  -->
<svg version="1.1" id="Layer_1" xmlns="http://www.w3.org/2000/svg" xmlns:xlink="http://www.w3.org/1999/xlink" x="0px" y="0px"
	 viewBox="0 0 288 288" style="enable-background:new 0 0 288 288;" xml:space="preserve">
<path fill="#e7dfdd" d="M208.6,134.5v-2.2c0-0.6,0.4-1,1-1h16.6c0.6,0,1,0.4,1,1v2.2c0,0.6-0.4,1-1,1h-16.6C209,135.5,208.6,135.1,208.6,134.5z"/>
<path fill="#e7dfdd" d="M216.8,138.1h2.2c0.6,0,1,0.4,1,1V157c0,0.6-0.4,1-1,1h-2.2c-0.6,0-1-0.4-1-1v-17.9C215.8,138.5,216.3,138.1,216.8,138.1z"
	/>
<path fill="#e7dfdd" d="M115,157.6h-2.2c-0.5,0-1-0.4-1-1v-24.6c0-0.6,0.5-1,1-1h2.2c0.6,0,1,0.4,1,1v24.6C116,157.1,115.6,157.6,115,157.6z"/>
<path fill="#e7dfdd" d="M140.9,139.6h-2.2c-0.6,0-1-0.4-1-1v-6.2c0-0.6,0.4-1,1-1h2.2c0.6,0,1,0.4,1,1v6.2C141.9,139.1,141.5,139.6,140.9,139.6z"/>
<path fill="#e7dfdd" d="M140.9,157.8h-2.2c-0.6,0-1-0.4-1-1v-13.6c0-0.6,0.4-1,1-1h2.2c0.6,0,1,0.4,1,1v13.6C141.9,157.4,141.5,157.8,140.9,157.8z"
	/>
<path fill="#e7dfdd" d="M137.8,156.8v-2.2c0-0.5,0.4-1,1-1h15.6c0.6,0,1,0.5,1,1v2.2c0,0.6-0.4,1-1,1h-15.6C138.2,157.8,137.8,157.4,137.8,156.8z"
	/>
<path fill="#e7dfdd" d="M137.8,134.5v-2.2c0-0.6,0.4-1,1-1h15.6c0.6,0,1,0.4,1,1v2.2c0,0.6-0.4,1-1,1h-15.6C138.2,135.5,137.8,135.1,137.8,134.5z"
	/>
<path fill="#e7dfdd" d="M137.8,145.3v-2.2c0-0.6,0.4-1,1-1h12.6c0.6,0,1,0.4,1,1v2.2c0,0.6-0.4,1-1,1h-12.6C138.2,146.3,137.8,145.9,137.8,145.3z"
	/>
<path fill="#e7dfdd" d="M121.1,143.2l-0.6,0.4c-0.8,0.5-1.9,0.4-2.4-0.4l-5.3-9.1c-0.5-0.8-0.4-1.9,0.4-2.4l0.6-0.4c0.8-0.5,1.9-0.4,2.4,0.4
	l5.3,9.1C122.1,141.5,121.9,142.6,121.1,143.2z"/>
<path fill="#e7dfdd" d="M128,130.9h2.2c0.5,0,1,0.4,1,1v24.6c0,0.6-0.5,1-1,1H128c-0.6,0-1-0.4-1-1v-24.6C127,131.4,127.4,130.9,128,130.9z"/>
<path fill="#e7dfdd" d="M122,145.7l0.6-0.4c0.8-0.5,1.9-0.4,2.4,0.4l5.1,8.7c0.5,0.8,0.4,1.9-0.4,2.4l-0.6,0.4c-0.8,0.5-1.9,0.4-2.4-0.4l-5.1-8.7
	C121.1,147.3,121.2,146.2,122,145.7z"/>
<path fill="#e7dfdd" d="M162.2,134.5v-2.2c0-0.6,0.4-1,1-1h4.6c0.6,0,1,0.4,1,1v2.2c0,0.6-0.4,1-1,1h-4.6C162.7,135.5,162.2,135.1,162.2,134.5z"/>
<path fill="#e7dfdd" d="M183,134.5v-2.2c0-0.6,0.4-1,1-1h6.6c0.6,0,1,0.4,1,1v2.2c0,0.6-0.4,1-1,1H184C183.5,135.5,183,135.1,183,134.5z"/>
<path fill="#e7dfdd" d="M165.7,132.9l1.7-1.3c0.4-0.3,1.1-0.3,1.4,0.2l5.2,6.4c0.3,0.4,0.3,1.1-0.2,1.4l-1.3,1.7c-0.4,0.3-1.1,0.3-1.4-0.2l-5.6-6.8
	C165.2,133.9,165.2,133.3,165.7,132.9z"/>
<path fill="#e7dfdd" d="M192.6,128.1l1.6-1.5c0.4-0.4,1-0.4,1.4,0l6.4,6.4c0.4,0.4,0.4,1,0,1.4l-1.6,1.5c-0.4,0.4-1,0.4-1.4,0l-6.4-6.4
	C192.1,129.1,192.2,128.5,192.6,128.1z"/>
<path fill="#e7dfdd" d="M193.6,140.2l-1.3-1.7c-0.3-0.4-0.3-1.1,0.2-1.4l6.6-5.6c0.4-0.3,1.1-0.3,1.4,0.2l1.5,1.5c0.3,0.4,0.3,1.1-0.2,1.4l-6.8,5.8
	C194.6,140.7,194,140.6,193.6,140.2z"/>
<path fill="#e7dfdd" d="M192.6,150.4l1.6-1.5c0.4-0.4,1-0.4,1.4,0l6.4,6.4c0.4,0.4,0.4,1,0,1.4l-1.6,1.5c-0.4,0.4-1,0.4-1.4,0l-6.4-6.4
	C192.1,151.4,192.2,150.8,192.6,150.4z"/>
<path fill="#e7dfdd" d="M193.6,162.5l-1.3-1.7c-0.3-0.4-0.3-1.1,0.2-1.4l6.6-5.6c0.4-0.3,1.1-0.3,1.4,0.2l1.5,1.5c0.3,0.4,0.3,1.1-0.2,1.4l-6.8,5.8
	C194.6,163,194,162.9,193.6,162.5z"/>
<path fill="#e7dfdd" d="M178.3,149.7l1.3-1.7c0.4-0.3,1.1-0.3,1.4,0.2l5.5,6.7c0.3,0.4,0.3,1.1-0.2,1.4l-1.7,1.3c-0.4,0.3-1.1,0.3-1.4-0.2l-5.1-6.4
	C177.8,150.6,178,150.1,178.3,149.7z"/>
<path fill="#e7dfdd" d="M191.7,154.7v2.2c0,0.6-0.4,1-1,1H184c-0.6,0-1-0.4-1-1v-2.2c0-0.5,0.4-1,1-1h6.6C191.2,153.7,191.7,154.1,191.7,154.7z"/>
<path fill="#e7dfdd" d="M162.2,154.7v2.2c0,0.6,0.4,1,1,1h4.6c0.6,0,1-0.4,1-1v-2.2c0-0.5-0.4-1-1-1h-4.6C162.7,153.7,162.2,154.1,162.2,154.7z"/>
<path fill="#e7dfdd" d="M165.7,156.3l1.7,1.3c0.4,0.3,1.1,0.3,1.4-0.2l17.7-23.1c0.3-0.4,0.3-1.1-0.2-1.4l-1.7-1.3c-0.4-0.3-1.1-0.3-1.4,0.2
	l-17.7,23.1C165.2,155.3,165.2,155.9,165.7,156.3z"/>
<path fill="#e7dfdd" d="M64.3,151.1h-2.2c-0.5,0-1-0.4-1-1v-18.2c0-0.6,0.5-1,1-1h2.2c0.5,0,1,0.4,1,1v18.2C65.3,150.7,64.9,151.1,64.3,151.1z"/>
<path fill="#e7dfdd" d="M78.4,151.1h-2.2c-0.6,0-1-0.4-1-1v-18.2c0-0.6,0.4-1,1-1h2.2c0.5,0,1,0.4,1,1v18.2C79.4,150.7,78.9,151.1,78.4,151.1z"/>
<path fill="#e7dfdd" d="M65.3,149.6c0,0,0.2,4.2,4.6,4.1s5.3-3.6,5.3-3.6h4.2c0,0-0.3,7.5-9.2,7.5c-9,0-9-7.5-9-7.5L65.3,149.6z"/>
<path fill="#e7dfdd" d="M65.3,148.2c0,0-0.2,5.7,4.6,5.5c4.8-0.2,0.3,2.2,0.3,2.2S62,150.6,65.3,148.2z"/>
<path fill="#e7dfdd" d="M75.2,147.6c0,0,0,4.2-2,5.2c-1.3,0.6,1.4,1.1,1.4,1.1S76.4,148,75.2,147.6z"/>
<path fill="#e7dfdd" d="M89,157.6h-2.2c-0.5,0-1-0.4-1-1v-24.6c0-0.6,0.5-1,1-1H89c0.6,0,1,0.4,1,1v24.6C90,157.1,89.5,157.6,89,157.6z"/>
<path fill="#e7dfdd" d="M85.8,134.1v-2.2c0-0.6,0.5-1,1-1h9.6c0.6,0,1,0.4,1,1v2.2c0,0.5-0.4,1-1,1h-9.6C86.3,135.1,85.8,134.6,85.8,134.1z"/>
<g>
	<path fill="#e7dfdd" d="M86.3,149.1v-2.2c0-0.6,0.4-1,1-1h4.1c0.6,0,1,0.4,1,1v2.2c0,0.6-0.4,1-1,1h-4.1C86.8,150.1,86.3,149.6,86.3,149.1z"/>
</g>
<g>
	<path fill="#e7dfdd" d="M95.1,149.1v-2.2c0-0.6,0.3-1,0.9-1h0.3c0.6,0,1,0.4,1,1v2.2c0,0.6-0.4,1-1,1H96C95.4,150.1,95.1,149.6,95.1,149.1z"/>
</g>
<path fill="#e7dfdd" d="M95.9,130.9c0,0,9.3-0.2,9.2,9.6c-0.1,9.9-9.2,9.5-9.2,9.5v-4.2c0,0,5.2,1.3,5.1-4.9c-0.1-6.2-2.4-5.9-7.3-5.9
	S95.9,130.9,95.9,130.9z"/>
<path fill="#e7dfdd" d="M95.9,150.1c0,0,3.4,0.3,6.7-2.7c3.2-3-7.2,1.9-7.2,1.9L95.9,150.1z"/>
<path fill="#e7dfdd" d="M96,145.9c0,0,4.5,0.2,4.9-3.5c0.4-3.7-0.2,3.5-0.2,3.5S96.2,147.6,96,145.9z"/>
</svg>
